<?xml version="1.0" standalone="no"?>
<!DOCTYPE svg PUBLIC "-//W3C//DTD SVG 20010904//EN"
 "http://www.w3.org/TR/2001/REC-SVG-20010904/DTD/svg10.dtd">
<svg version="1.0" xmlns="http://www.w3.org/2000/svg"
 width="1045.000000pt" height="1045.000000pt" viewBox="0 0 1045.000000 1045.000000"
 preserveAspectRatio="xMidYMid meet">
<metadata>
Created by potrace 1.11, written by Peter Selinger 2001-2013
</metadata>
<g transform="translate(0.000000,1045.000000) scale(0.100000,-0.100000)"
fill="#000000" stroke="none">
<path d="M265 7888 c-7 -22 -225 -1112 -225 -1126 0 -9 105 -12 485 -12 267 0
485 -1 485 -2 0 -2 -184 -924 -408 -2050 l-408 -2048 743 0 743 0 5 23 c6 22
1045 5220 1045 5224 0 2 -554 3 -1230 3 -976 0 -1231 -3 -1235 -12z"/>
<path d="M3189 7325 l-117 -575 489 0 489 0 -5 -22 c-15 -59 -813 -4073 -810
-4076 4 -4 1477 -3 1482 1 2 2 237 1174 523 2603 286 1429 522 2609 525 2622
l5 22 -1232 0 -1233 0 -116 -575z"/>
<path d="M6570 6388 c-238 -832 -435 -1523 -438 -1535 l-4 -23 823 0 c880 0
985 -5 1149 -50 242 -68 370 -216 370 -430 0 -141 -42 -249 -139 -352 -71 -75
-141 -119 -264 -166 -147 -55 -247 -72 -465 -79 -215 -7 -368 5 -552 42 -297
61 -573 171 -804 322 -75 49 -101 61 -107 51 -4 -7 -159 -245 -344 -528 l-335
-515 32 -27 c49 -40 216 -142 331 -203 469 -247 1142 -377 1792 -345 509 26
908 121 1290 310 522 257 886 687 1015 1198 80 320 67 743 -32 1002 -67 176
-173 337 -301 455 -348 323 -869 475 -1624 475 -162 0 -175 1 -171 18 3 9 52
180 109 380 l103 362 1053 0 1053 0 5 23 c12 51 225 1110 225 1118 0 5 -687 9
-1668 9 l-1669 0 -433 -1512z"/>
</g>
</svg>
